# xmcd CD database file
#
# Track frame offsets:
#	150
#	16464
#	52311
#	78143
#	97163
#	137422
#	157636
#
# Disc length: 2485 seconds
#
# Revision: 0
# Processed by: cddbd v1.5.2PL0 Copyright (c) Steve Scherf et al.
# Submitted via: CDex 1.70beta2
#
DISCID=4d09b307
DTITLE=Nadine Goellner - Live
DYEAR=2006
DGENRE=Jazz
TTITLE0=falling in love
TTITLE1=three days
TTITLE2=can't wait
TTITLE3=how far will we go
TTITLE4=without you
TTITLE5=ain't nothing better
TTITLE6=starry night
EXTD=YEAR: 2006
EXTT0=
EXTT1=
EXTT2=
EXTT3=
EXTT4=
EXTT5=
EXTT6=
PLAYORDER=
